<?xml version="1.0" standalone="no"?>
<!DOCTYPE svg PUBLIC "-//W3C//DTD SVG 20010904//EN"
 "http://www.w3.org/TR/2001/REC-SVG-20010904/DTD/svg10.dtd">
<svg version="1.0" xmlns="http://www.w3.org/2000/svg"
 width="96.000000pt" height="96.000000pt" viewBox="0 0 96.000000 96.000000"
 preserveAspectRatio="xMidYMid meet">
<metadata>
Created by potrace 1.14, written by Peter Selinger 2001-2017
</metadata>
<g transform="translate(0.000000,96.000000) scale(0.100000,-0.100000)"
fill="#000000" stroke="none">
<path d="M227 774 c-4 -4 -7 -23 -7 -43 l0 -36 -47 0 -48 0 -3 -87 -3 -88 -59
0 -60 0 0 -40 c0 -39 1 -40 38 -41 20 -1 47 0 59 1 21 1 22 -3 25 -87 l3 -88
45 0 45 0 5 -40 5 -40 45 0 45 0 3 128 3 127 159 0 159 0 3 -127 3 -128 45 0
45 0 5 40 5 40 45 0 45 0 3 88 3 87 59 0 60 0 0 40 0 40 -60 0 -59 0 -3 88 -3
87 -45 0 -45 0 -5 40 -5 40 -45 0 -45 0 -3 -127 -3 -128 -159 0 -159 0 -3 128
-3 127 -40 3 c-23 2 -44 0 -48 -4z"/>
</g>
</svg>
